<svg xmlns="http://www.w3.org/2000/svg" xmlns:xlink="http://www.w3.org/1999/xlink" width="45" height="45" viewBox="0 0 45 45">
  <defs>
    <clipPath id="clip-_1">
      <rect width="45" height="45"/>
    </clipPath>
  </defs>
  <g id="_1" data-name="1" clip-path="url(#clip-_1)">
    <g id="Group_3910" data-name="Group 3910" transform="translate(-398.844 -222.124)">
      <g id="Group_3907" data-name="Group 3907" transform="translate(407.779 228.54)">
        <path id="Path_5878" data-name="Path 5878" d="M421.818,233.6a14.679,14.679,0,0,0,3.659.383,5.543,5.543,0,0,1,5,1.975,5.535,5.535,0,0,1,4.985-1.978,14.083,14.083,0,0,0,3.366-.385,3.459,3.459,0,0,0,1.531-.651l.076-.054h0a3.05,3.05,0,0,0,1.307-3.178s-.263,1.091-3.059,1.554l-.09-.07a13.026,13.026,0,0,0-7.892-2.657l-.221,0-.222,0a13.025,13.025,0,0,0-7.892,2.657c-.051.038-.1.078-.15.117-3.088-.43-3.37-1.6-3.37-1.6C418.3,232.112,420.779,233.549,421.818,233.6Z" transform="translate(-417.184 -228.54)" fill="#fbc34a"/>
        <path id="Path_5879" data-name="Path 5879" d="M433.235,265.968a12.991,12.991,0,0,0-1.658-2.749,3.645,3.645,0,0,1-2.035,2.308,5.541,5.541,0,0,1,.127,7.1l-4.246,5.272a5.53,5.53,0,0,1-4.318,2.065h-.03a5.528,5.528,0,0,1-4.348-2.064l-4.246-5.272a5.542,5.542,0,0,1,.039-7,3.834,3.834,0,0,1-2.183-2.1,13.089,13.089,0,0,0,.1,15.677l8.162,10.771a3.11,3.11,0,0,0,4.957,0l8.161-10.771A13.079,13.079,0,0,0,433.235,265.968Z" transform="translate(-407.779 -258.219)" fill="#fbc34a"/>
      </g>
      <path id="Path_5880" data-name="Path 5880" d="M494.666,336.052a1.879,1.879,0,0,0,0-3.188A1.879,1.879,0,0,0,494.666,336.052Z" transform="translate(-73.591 -89.283)" fill="#fbc34a"/>
      <g id="Group_3908" data-name="Group 3908" transform="translate(412.804 236.541)">
        <path id="Path_5881" data-name="Path 5881" d="M513.707,284.032a3.392,3.392,0,1,0,3.392,3.392A3.392,3.392,0,0,0,513.707,284.032Zm0,5.581a2.146,2.146,0,1,1,2.146-2.146A2.146,2.146,0,0,1,513.707,289.613Z" transform="translate(-500.557 -284.032)" fill="#fbc34a"/>
        <path id="Path_5882" data-name="Path 5882" d="M526.8,299.967a1.14,1.14,0,0,1-1.114-1.387,1.316,1.316,0,1,0,1.653,1.272c0-.007,0-.014,0-.021A1.135,1.135,0,0,1,526.8,299.967Z" transform="translate(-512.878 -296.483)" fill="#fbc34a"/>
        <path id="Path_5883" data-name="Path 5883" d="M446.027,284.032a3.392,3.392,0,1,0,3.392,3.392A3.392,3.392,0,0,0,446.027,284.032Zm0,5.581a2.146,2.146,0,1,1,2.146-2.146A2.146,2.146,0,0,1,446.027,289.613Z" transform="translate(-442.635 -284.032)" fill="#fbc34a"/>
        <path id="Path_5884" data-name="Path 5884" d="M458.685,298.58a1.141,1.141,0,0,1-1.653,1.251c0,.007,0,.014,0,.021a1.316,1.316,0,1,0,1.653-1.272Z" transform="translate(-454.956 -296.483)" fill="#fbc34a"/>
      </g>
    </g>
  </g>
</svg>
